<svg width="47" height="35" viewBox="0 0 47 35" fill="none" xmlns="http://www.w3.org/2000/svg">
<g clip-path="url(#clip0_1_11173)">
<path d="M23.2329 23.1328C15.9122 23.1328 9.73535 24.329 9.73535 28.9459C9.73535 33.5646 15.9521 34.7188 23.2329 34.7188C30.5536 34.7188 36.7305 33.5226 36.7305 28.9057C36.7305 24.287 30.5137 23.1328 23.2329 23.1328Z" fill="white"/>
<path opacity="0.4" d="M23.2337 18.7342C28.1908 18.7342 32.1656 14.7365 32.1656 9.75089C32.1656 4.76335 28.1908 0.767578 23.2337 0.767578C18.2766 0.767578 14.3018 4.76335 14.3018 9.75089C14.3018 14.7365 18.2766 18.7342 23.2337 18.7342Z" fill="white"/>
<path opacity="0.4" d="M42.626 11.8433C43.9085 6.79841 40.1484 2.26758 35.3604 2.26758C34.8398 2.26758 34.342 2.32491 33.8556 2.42236C33.791 2.43765 33.7188 2.47014 33.6808 2.52747C33.6371 2.60008 33.6694 2.69754 33.7169 2.7606C35.1552 4.79002 35.9817 7.26086 35.9817 9.91324C35.9817 12.4548 35.2236 14.8243 33.8936 16.7907C33.7568 16.9933 33.8784 17.2665 34.1197 17.3086C34.4541 17.3678 34.7961 17.3984 35.1457 17.4079C38.6322 17.4997 41.7615 15.2428 42.626 11.8433Z" fill="white"/>
<path d="M46.2782 23.7214C45.6398 22.3531 44.0989 21.4149 41.7562 20.9543C40.6504 20.683 37.6579 20.3008 34.8744 20.3524C34.8326 20.3581 34.8098 20.3868 34.806 20.4059C34.8003 20.4326 34.8117 20.4785 34.8668 20.5072C36.1531 21.1473 41.1254 23.9316 40.5003 29.8039C40.4737 30.058 40.677 30.2778 40.9297 30.2396C42.1533 30.0638 45.3016 29.3835 46.2782 27.2642C46.8178 26.1444 46.8178 24.8431 46.2782 23.7214Z" fill="white"/>
<path opacity="0.4" d="M12.8264 2.42333C12.3419 2.32396 11.8422 2.26855 11.3216 2.26855C6.53367 2.26855 2.77357 6.79938 4.05797 11.8443C4.92057 15.2438 8.04987 17.5006 11.5363 17.4089C11.8859 17.3994 12.2298 17.3669 12.5623 17.3096C12.8036 17.2675 12.9252 16.9942 12.7884 16.7917C11.4584 14.8234 10.7003 12.4558 10.7003 9.91421C10.7003 7.25991 11.5287 4.78907 12.967 2.76157C13.0126 2.69851 13.0468 2.60105 13.0012 2.52843C12.9632 2.46919 12.8929 2.43862 12.8264 2.42333Z" fill="white"/>
<path d="M4.92623 20.9527C2.58353 21.4133 1.04453 22.3515 0.406125 23.7198C-0.135375 24.8415 -0.135375 26.1428 0.406125 27.2646C1.38273 29.3819 4.53103 30.0641 5.75463 30.238C6.00733 30.2762 6.20873 30.0584 6.18213 29.8023C5.55703 23.9319 10.5293 21.1477 11.8175 20.5075C11.8707 20.4769 11.8821 20.433 11.8764 20.4043C11.8726 20.3852 11.8517 20.3565 11.8099 20.3527C9.02453 20.2992 6.03393 20.6814 4.92623 20.9527Z" fill="white"/>
</g>
<defs>
<clipPath id="clip0_1_11173">
<rect width="47" height="35" fill="white"/>
</clipPath>
</defs>
</svg>
